<?xml version="1.0" encoding="UTF-8"?>
<svg id="_圖層_1" xmlns="http://www.w3.org/2000/svg" version="1.1" viewBox="0 0 178.93 43.65">
  <!-- Generator: Adobe Illustrator 30.1.0, SVG Export Plug-In . SVG Version: 2.1.1 Build 136)  -->
  <defs>
    <style>
      .st0 {
        fill: #aaa660;
      }

      .st1 {
        isolation: isolate;
      }

      .st2 {
        fill: #fff;
      }
    </style>
  </defs>
  <path class="st0" d="M93.57,9.2h-.34c0,2.41-1.95,4.36-4.36,4.36v.34c2.41,0,4.36,1.95,4.36,4.36h.34c0-2.41,1.95-4.36,4.36-4.36v-.34c-2.41,0-4.36-1.95-4.36-4.36h0Z"/>
  <path class="st2" d="M138.02,5.28h-.27c0,1.95-1.58,3.52-3.52,3.52v.27c1.95,0,3.52,1.58,3.52,3.52h.27c0-1.95,1.58-3.52,3.52-3.52v-.27c-1.95,0-3.52-1.58-3.52-3.52h0Z"/>
  <path class="st2" d="M174.57,12.15h-.34c0,2.41-1.95,4.36-4.36,4.36v.34c2.41,0,4.36,1.95,4.36,4.36h.34c0-2.41,1.95-4.36,4.36-4.36v-.34c-2.41,0-4.36-1.95-4.36-4.36h0Z"/>
  <path class="st0" d="M100.86,7.24h-.2c0,1.45-1.17,2.62-2.62,2.62v.2c1.45,0,2.62,1.17,2.62,2.62h.2c0-1.45,1.17-2.62,2.62-2.62v-.2c-1.45,0-2.62-1.17-2.62-2.62Z"/>
  <path class="st0" d="M96.85,37.69h-.16c0,1.13-.92,2.05-2.05,2.05v.16c1.13,0,2.05.92,2.05,2.05h.16c0-1.13.92-2.05,2.05-2.05v-.16c-1.13,0-2.05-.92-2.05-2.05Z"/>
  <path class="st0" d="M101.1,37.69h-.16c0,1.13-.92,2.05-2.05,2.05v.16c1.13,0,2.05.92,2.05,2.05h.16c0-1.13.92-2.05,2.05-2.05v-.16c-1.13,0-2.05-.92-2.05-2.05Z"/>
  <path class="st2" d="M56.99.72h-.34c0,2.41-1.96,4.37-4.37,4.37v.34c2.41,0,4.37,1.96,4.37,4.37h.34c0-2.41,1.96-4.37,4.37-4.37v-.34c-2.41,0-4.37-1.96-4.37-4.37Z"/>
  <path class="st2" d="M29.4,14.62c0,.59-.2,1.02-.6,1.3-.4.27-.88.41-1.42.41h-11.27v12.69h-3.2v-12.69H0v-1.39h12.91V6.65h-5.22c-.27.34-.54.68-.79,1.03s-.52.69-.79,1.03c-.15.19-.41.47-.79.85s-.8.77-1.25,1.17-.88.74-1.28,1.03c-.4.28-.72.43-.95.43-.11,0-.16-.04-.16-.13,0-.11.02-.19.06-.27.04-.07.08-.15.13-.24,1.05-1.67,2.03-3.47,2.93-5.4S6.37,2.29,6.81.37l3.51.92c.08.02.17.05.27.08.09.03.14.1.14.21,0,.13-.09.36-.27.71s-.39.72-.63,1.12c-.24.4-.47.78-.7,1.12s-.39.6-.49.74h13.42s0-.09-.02-.14c0-.05-.02-.11-.02-.17,0-.44.16-.83.47-1.17.32-.34.71-.51,1.17-.51s.86.16,1.19.49c.33.33.49.72.49,1.19s-.17.83-.51,1.17-.73.51-1.17.51h-7.56v8.29h9.72s-.03-.09-.03-.16v-.16c0-.49.18-.9.55-1.25s.79-.52,1.25-.52.91.17,1.27.52.54.77.54,1.25h0Z"/>
  <path class="st2" d="M41.61,8.03c-1.22,2.09-2.62,4.01-4.18,5.76h1.55v14.68h-2.69v-13.55c-.19.19-.5.46-.92.81s-.88.71-1.38,1.08-.96.68-1.39.93-.78.38-1.03.38c-.04,0-.11-.01-.19-.03-.08-.02-.13-.06-.13-.13,0-.08.04-.17.13-.25.13-.17.27-.33.44-.47.17-.15.33-.3.47-.44.46-.49.91-1,1.33-1.55.42-.55.82-1.11,1.2-1.68.74-1.08,1.42-2.19,2.06-3.34.63-1.15,1.18-2.34,1.65-3.56l3.07,1.36h0ZM58.69,5.96c-.31.31-.67.46-1.09.46-4.26,0-8.52,0-12.79-.02-4.26-.01-8.53-.02-12.82-.02v-1.33h11.87c-.02-.36-.04-.71-.05-1.04,0-.34-.02-.67-.02-1.01,0-.51,0-1.01.02-1.5,0-.5.03-1,.05-1.5.21.02.51.04.9.06.39.02.81.05,1.27.08.45.03.86.07,1.22.11s.61.09.76.16c.11.04.19.09.27.16.07.06.11.16.11.28,0,.15-.11.42-.32.81s-.47.82-.78,1.28c-.31.46-.59.89-.85,1.28-.26.39-.46.67-.59.84h10.16c0-.49,2.98.6,2.67.9h0ZM60.22,27.24c0,.4-.16.76-.49,1.08-.33.32-.69.47-1.09.47-.08,0-.17,0-.25-.02-.08,0-.17-.03-.25-.05-1.86-.36-3.59-1.03-5.21-2.03-1.61-.99-3.1-2.14-4.45-3.45-.72.59-1.51,1.13-2.37,1.61-.87.49-1.73.89-2.6,1.2-.34.13-.71.25-1.11.36-.4.12-.78.2-1.14.24h-.22s-.11,0-.19-.02c-.08,0-.13-.06-.13-.14,0-.04.04-.08.11-.11s.12-.06.14-.08c.34-.17.67-.34,1-.51s.65-.35.97-.54c.76-.46,1.5-.98,2.22-1.53.72-.56,1.37-1.17,1.96-1.82-.68-.76-1.3-1.56-1.88-2.39-.58-.83-1.12-1.68-1.63-2.55l2.15-1.68c.38.84.82,1.65,1.31,2.42.5.77,1.04,1.52,1.63,2.26.34-.44.65-.9.95-1.36s.57-.94.82-1.42c-.59-.42-1.2-.83-1.82-1.22s-1.25-.75-1.88-1.09c.3-.32.6-.63.92-.93.32-.31.62-.62.92-.93.51.42.95.9,1.35,1.42.39.53.74,1.08,1.06,1.65.3-.7.55-1.41.76-2.15s.37-1.48.47-2.22h-5.22c-.72,1.03-1.49,2.02-2.33,2.96-.83.94-1.78,1.78-2.83,2.52-.08.04-.17.1-.27.17-.09.07-.2.11-.3.11s-.16-.05-.16-.16.04-.21.11-.3.13-.18.17-.27c.76-1.1,1.43-2.16,2.01-3.18.58-1.02,1.1-2.07,1.55-3.15s.87-2.26,1.25-3.54l2.97,1.11c-.21.4-.42.8-.63,1.2-.21.4-.43.8-.66,1.2h7.85c-.21,1.31-.59,2.65-1.12,4.02-.54,1.37-1.19,2.67-1.96,3.91-.77,1.23-1.62,2.34-2.55,3.31.93,1.22,1.99,2.31,3.2,3.26,1.2.95,2.48,1.78,3.83,2.5,0-.42.15-.79.44-1.11.3-.32.65-.47,1.08-.47.4,0,.76.13,1.08.4.32.26.47.61.47,1.03h-.01Z"/>
  <path class="st2" d="M81.39,15.35c0,.11-.02.24-.06.41-.17.7-.42,1.47-.76,2.33-.34.85-.72,1.71-1.16,2.58-.43.87-.9,1.68-1.41,2.44s-1.02,1.39-1.55,1.9c-.04.04-.1.09-.17.16-.07.06-.14.09-.21.09-.04,0-.09-.03-.16-.08-.06-.05-.09-.1-.09-.14,0-.11.01-.18.03-.22.42-1.73.8-3.45,1.14-5.16s.58-3.45.73-5.22l3.04.47c.13.02.26.06.41.11.15.05.22.16.22.33ZM104.88,20.22c0,.38-.08.76-.25,1.14s-.37.72-.6,1.01c-.8,1.14-1.79,2.08-2.96,2.82-1.17.74-2.43,1.28-3.78,1.63-1.35.35-2.71.52-4.08.52h-.54c-.99-.04-1.99-.18-2.99-.41s-1.92-.59-2.75-1.08-1.52-1.12-2.06-1.91-.86-1.76-.97-2.9c-.02-.34-.03-.68-.03-1.03s-.01-.69-.03-1.03v-10.54l3.35.13c-.08,1.75-.15,3.5-.21,5.25-.05,1.75-.08,3.5-.08,5.25,0,1.56.22,2.78.66,3.66s1.14,1.48,2.09,1.82,2.17.51,3.67.51c1.24,0,2.49-.12,3.75-.36s2.45-.63,3.59-1.16c.44-.21.86-.45,1.27-.73.4-.27.79-.55,1.17-.82-.53-.02-.97-.21-1.31-.57-.35-.36-.52-.8-.52-1.33,0-.49.17-.9.52-1.25s.76-.52,1.25-.52.94.2,1.3.59.54.83.54,1.31Z"/>
  <path class="st2" d="M122.66,7.37c0,.95-.46,1.42-1.39,1.42h-5.1c-.02.82-.04,1.64-.06,2.45-.02.81-.06,1.63-.13,2.45h5.54c-.08,1.71-.21,3.42-.36,5.14-.16,1.72-.37,3.42-.65,5.11-.08.57-.22,1.17-.4,1.79-.18.62-.43,1.2-.74,1.74s-.72.98-1.2,1.31c-.49.34-1.08.51-1.77.51-.3,0-.6-.12-.92-.36-.32-.24-.62-.52-.9-.84s-.53-.57-.74-.76c-.04-.04-.18-.18-.41-.43-.23-.24-.35-.37-.35-.4,0-.06.04-.09.13-.09.04,0,.21.05.49.14s.47.15.55.17c.25.08.51.16.78.22.26.06.53.09.81.09.42,0,.74-.13.97-.38s.4-.55.52-.89c.23-.55.42-1.3.57-2.26.15-.96.27-1.99.36-3.09s.17-2.15.22-3.15.09-1.81.11-2.42h-2.75c-.19,1.77-.51,3.49-.97,5.16-.45,1.67-1.12,3.21-1.99,4.64-.88,1.42-2.07,2.68-3.59,3.78-.08.08-.17.13-.25.13-.13,0-.19-.06-.19-.19,0-.06.04-.14.13-.22,1.2-1.88,2.1-3.9,2.69-6.06.59-2.16.98-4.38,1.17-6.66.19-2.28.27-4.49.25-6.65h-4.15v-1.33h5.82c-.17-1.1-.32-2.19-.44-3.28-.13-1.09-.25-2.18-.38-3.28h1.17c.46,0,.94,0,1.44-.02.5-.01.98.03,1.44.11.17.02.31.06.41.11.11.05.16.2.16.43,0,.17-.1.52-.3,1.06s-.44,1.14-.73,1.82c-.28.68-.55,1.29-.81,1.85-.25.56-.43.95-.54,1.19h3.64c0-.4.14-.74.43-1.01.28-.27.63-.41,1.03-.41.36,0,.68.13.97.38.28.25.43.57.43.95l-.02.03ZM138.71,27.85c0,.36-.13.69-.4.98-.26.3-.59.44-.97.44-.59,0-1.26-.22-2.01-.65s-1.49-.97-2.23-1.61c-.74-.64-1.41-1.3-2.03-1.96-.61-.66-1.1-1.22-1.46-1.66-1.25,1.35-2.61,2.46-4.08,3.34-1.48.88-3.1,1.56-4.87,2.04-.04.02-.12.03-.22.03-.08,0-.17-.02-.27-.06-.09-.04-.14-.11-.14-.19,0-.11.14-.24.43-.41.28-.17.59-.33.9-.49.32-.16.53-.27.63-.33,1.24-.74,2.38-1.62,3.42-2.64,1.03-1.02,1.95-2.14,2.75-3.34-1.54-2.41-2.67-5.02-3.39-7.85l2.69-1.08c.49,2.26,1.18,4.48,2.09,6.68.67-1.5,1.2-3.01,1.57-4.54.37-1.53.63-3.1.78-4.7l3.01.92c-.13,1.1-.37,2.32-.73,3.66s-.8,2.65-1.33,3.92c-.53,1.28-1.12,2.37-1.77,3.28.67,1.12,1.39,2.22,2.15,3.31s1.63,2.06,2.63,2.93c0-.42.14-.76.41-1.01s.61-.38,1.01-.38.74.13,1.01.4c.27.26.41.6.41,1v-.03ZM136.11,9.68h-8.89c-.55.91-1.2,1.84-1.96,2.78-.76.95-1.55,1.76-2.37,2.44-.13.08-.26.18-.41.28-.15.11-.31.16-.47.16-.13,0-.19-.04-.19-.13s.03-.16.08-.24c.05-.07.09-.14.11-.21.78-1.24,1.51-2.65,2.18-4.22s1.26-3.19,1.74-4.84c.49-1.66.82-3.2,1.01-4.64l3.51,1.04c-.34,1.1-.73,2.16-1.17,3.2-.44,1.03-.93,2.05-1.46,3.04,0,0,9.46.12,9.46.09,0-.42-.69,1.23-1.17,1.23v.02Z"/>
  <path class="st2" d="M173.03,17.21c.31-.21,3.13-.89,1.05-.89h-5.31c.42-.38.72-.88.9-1.49s.27-1.18.27-1.71v-7.25h-6.33c0-.86,0-1.74.02-2.61,0-.88.02-1.75.02-2.61h-3.07c0,.87,0,1.74.02,2.61,0,.88.02,1.75.02,2.61h-5.57v10.44h-2.22c.02-.76.02-1.53,0-2.31-.02-.78-.03-1.49-.03-2.12,0-1.31,0-2.62.02-3.92,0-1.31.02-2.61.02-3.89h-8.48v18.48h3.86c1.16,0,2.07-.24,2.72-.71.65-.47,1.12-1.1,1.41-1.87.28-.77.43-1.59.43-2.45h7.47c-.08.7-.3,1.44-.65,2.22-.35.78-.7,1.47-1.06,2.06-.59.97-1.3,1.86-2.14,2.66-.83.8-1.72,1.52-2.67,2.15-.63.4-1.31.76-2.03,1.09s-1.45.64-2.18.93c-.13.02-.19.11-.19.25,0,.08.05.13.14.14s.18.02.27.02c.11,0,.26-.02.47-.06s.4-.07.57-.09c.3-.08.59-.16.89-.24.3-.07.55-.14.76-.21.27-.08.56-.18.85-.3.3-.12.58-.23.85-.33.67-.3,1.33-.61,1.98-.93.64-.33,1.23-.69,1.76-1.09.95-.67,1.79-1.47,2.53-2.37.74-.91,1.26-1.85,1.55-2.82.42.78.98,1.63,1.66,2.55.69.92,1.39,1.74,2.1,2.45,1.9,1.84,3.91,3.05,6.04,3.64.11.02.22.05.35.08.13.03.24.05.35.05.36,0,.69-.13,1-.4.31-.26.46-.58.46-.93s-.15-.67-.46-.93c-.31-.26-.64-.4-1-.4-.34,0-.62.12-.85.36-.23.24-.37.53-.41.87-.57-.46-1.2-1.04-1.9-1.74s-1.37-1.45-2.03-2.26c-.65-.81-1.22-1.6-1.71-2.36-.34-.51-.67-1.13-1-1.87-.33-.74-.61-1.47-.84-2.18h8.29c.38,0,.72-.11,1.03-.32h0ZM146.48,20.79c0,.2-.16.36-.36.36h-.83c-.2,0-.36-.16-.36-.36v-.3c0-.2.16-.36.36-.36h.83c.2,0,.36.16.36.36v.3ZM146.48,18.41c0,.2-.16.36-.36.36h-.83c-.2,0-.36-.16-.36-.36v-.3c0-.2.16-.36.36-.36h.83c.2,0,.36.16.36.36v.3ZM146.48,16.03c0,.2-.16.36-.36.36h-.83c-.2,0-.36-.16-.36-.36v-.3c0-.2.16-.36.36-.36h.83c.2,0,.36.16.36.36v.3ZM146.48,10.69c0,.2-.16.36-.36.36h-.83c-.2,0-.36-.16-.36-.36v-.3c0-.2.16-.36.36-.36h.83c.2,0,.36.16.36.36v.3ZM146.48,8.32c0,.2-.16.36-.36.36h-.83c-.2,0-.36-.16-.36-.36v-.3c0-.2.16-.36.36-.36h.83c.2,0,.36.16.36.36v.3ZM146.48,5.94c0,.2-.16.36-.36.36h-.83c-.2,0-.36-.16-.36-.36v-.3c0-.2.16-.36.36-.36h.83c.2,0,.36.16.36.36v.3ZM150.1,17.31c0,.53-.04,1.09-.11,1.69-.07.6-.26,1.12-.57,1.55-.31.43-.82.65-1.53.65h-.82V5.28h3.04v12.03h0ZM160.64,8.4v1.99c0,.75,0,1.51-.02,2.28,0,.77-.03,1.48-.06,2.14-.03.65-.07,1.16-.11,1.52h-2.88V7.15h3.07v1.25ZM166.65,15.54c-.25.53-.68.79-1.27.79h-2.09c.08-.91.14-1.91.17-3.01s.05-2.18.06-3.26.03-2.05.05-2.91h3.42c0,1.14,0,2.28.02,3.43,0,1.15.02,2.29.02,3.43,0,.49-.13.99-.38,1.52h0Z"/>
  <path class="st0" d="M148.59,10.31h-.22c0,1.56-1.26,2.82-2.82,2.82v.22c1.56,0,2.82,1.26,2.82,2.82h.22c0-1.56,1.26-2.82,2.82-2.82v-.22c-1.56,0-2.82-1.26-2.82-2.82Z"/>
  <g class="st1">
    <g class="st1">
      <path class="st2" d="M53.99,36.16h.81l1.83,3.58,1.83-3.58h.76v5.78h-.76v-4.39l-1.57,3.1h-.58l-1.57-3.1v4.39h-.76v-5.78h.01Z"/>
      <path class="st2" d="M61.2,37.08c-.14,0-.26-.05-.36-.15-.1-.1-.15-.22-.15-.36s.05-.26.15-.36c.1-.1.22-.15.36-.15s.26.05.36.15c.1.1.15.22.15.36s-.05.26-.15.36c-.1.1-.22.15-.36.15ZM60.83,37.57h.73v4.38h-.73v-4.38Z"/>
      <path class="st2" d="M64.37,41.99c-.23,0-.44-.04-.64-.12s-.36-.21-.5-.37c-.14-.17-.25-.37-.33-.62s-.12-.53-.12-.86v-.63c0-.31.04-.58.12-.81s.19-.43.33-.59.31-.28.5-.36c.2-.08.41-.12.64-.12.3,0,.55.07.76.21.2.14.35.31.46.53v-2.08h.74v5.78h-.65v-.73c-.13.25-.3.44-.51.57s-.48.2-.79.2h0ZM64.52,41.35c.33,0,.59-.1.78-.31.19-.21.29-.55.29-1.01v-.63c0-.42-.09-.73-.29-.94-.19-.21-.45-.31-.78-.31-.3,0-.54.1-.73.31-.19.21-.28.52-.28.94v.63c0,.46.09.8.28,1.01s.43.31.73.31Z"/>
      <path class="st2" d="M67.56,37.57h.65v.73c.09-.21.25-.4.48-.55.23-.15.5-.23.82-.23.45,0,.8.14,1.05.42.26.28.38.7.38,1.27v2.74h-.74v-2.7c0-.38-.08-.66-.24-.83-.16-.17-.38-.26-.68-.26-.14,0-.27.03-.39.08-.12.06-.23.13-.32.23s-.16.21-.21.34-.08.28-.08.44v2.7h-.74v-4.38h.02Z"/>
      <path class="st2" d="M72.68,37.08c-.14,0-.26-.05-.36-.15-.1-.1-.15-.22-.15-.36s.05-.26.15-.36c.1-.1.22-.15.36-.15s.26.05.36.15c.1.1.15.22.15.36s-.05.26-.15.36c-.1.1-.22.15-.36.15ZM72.31,37.57h.73v4.38h-.73v-4.38Z"/>
      <path class="st2" d="M75.85,41.99c-.23,0-.44-.04-.64-.12-.2-.08-.36-.21-.5-.37-.14-.17-.25-.37-.33-.62-.08-.24-.12-.53-.12-.85v-.63c0-.31.04-.58.12-.81s.19-.43.33-.59.31-.28.5-.36c.2-.08.41-.12.64-.12.31,0,.58.07.79.2s.38.33.51.57v-.73h.65v4.38c0,.58-.14,1.01-.43,1.29s-.74.42-1.37.42c-.26,0-.49-.03-.69-.09-.19-.06-.36-.14-.49-.24s-.24-.23-.31-.37c-.08-.14-.13-.3-.16-.46h.72c.03.07.06.14.11.21.04.07.1.12.17.17s.16.09.26.12.23.04.38.04c.38,0,.65-.09.82-.26s.25-.45.25-.83v-.68c-.1.21-.26.38-.46.52-.2.13-.45.2-.76.2h.01ZM76,41.36c.33,0,.59-.1.78-.31.19-.21.29-.55.29-1.02v-.63c0-.41-.09-.72-.29-.93-.19-.21-.45-.31-.78-.31-.3,0-.54.1-.73.31-.19.21-.28.52-.28.93v.63c0,.47.09.81.28,1.02s.43.31.73.31Z"/>
      <path class="st2" d="M79.04,36.16h.74v2.02c.1-.17.25-.32.44-.46.2-.14.45-.21.77-.21.45,0,.8.14,1.05.42.26.28.38.7.38,1.27v2.74h-.74v-2.7c0-.38-.08-.66-.24-.83-.16-.17-.38-.26-.68-.26-.14,0-.27.03-.39.08-.12.06-.23.13-.32.23s-.16.21-.21.34-.08.28-.08.44v2.7h-.74v-5.78h.02Z"/>
      <path class="st2" d="M85.27,41.94c-.24,0-.45-.02-.62-.07-.17-.05-.31-.13-.41-.24s-.19-.25-.24-.42-.07-.38-.07-.63v-2.37h-.61v-.64h.61v-.99h.74v.99h.9v.64h-.9v2.37c0,.29.05.48.14.58s.26.15.49.15h.27v.64h-.3,0Z"/>
      <path class="st0" d="M88.85,36.16h.81l1.83,3.58,1.83-3.58h.76v5.78h-.76v-4.39l-1.57,3.1h-.58l-1.57-3.1v4.39h-.76v-5.78h.01Z"/>
      <path class="st0" d="M105.17,41.99c-.23,0-.44-.04-.64-.12s-.36-.21-.5-.37c-.14-.17-.25-.37-.33-.62s-.12-.53-.12-.86v-.63c0-.31.04-.58.12-.81s.19-.43.33-.59.31-.28.5-.36c.2-.08.41-.12.64-.12.3,0,.55.07.76.21.2.14.35.31.46.53v-2.08h.74v5.78h-.65v-.73c-.13.25-.3.44-.51.57s-.48.2-.79.2h0ZM105.32,41.35c.33,0,.59-.1.78-.31.19-.21.29-.55.29-1.01v-.63c0-.42-.09-.73-.29-.94-.19-.21-.45-.31-.78-.31-.3,0-.54.1-.73.31-.19.21-.28.52-.28.94v.63c0,.46.09.8.28,1.01s.43.31.73.31Z"/>
      <path class="st2" d="M107.88,37.57h.8l1.33,3.55,1.2-3.55h.77l-1.58,4.38h-.78l-1.74-4.38Z"/>
      <path class="st2" d="M113.28,37.08c-.14,0-.26-.05-.36-.15-.1-.1-.15-.22-.15-.36s.05-.26.15-.36c.1-.1.22-.15.36-.15s.26.05.36.15c.1.1.15.22.15.36s-.05.26-.15.36c-.1.1-.22.15-.36.15ZM112.91,37.57h.73v4.38h-.73v-4.38Z"/>
      <path class="st2" d="M116.62,42c-.26,0-.51-.04-.72-.13-.22-.09-.4-.21-.55-.38-.15-.17-.27-.37-.36-.62-.09-.24-.13-.53-.13-.85v-.63c0-.62.15-1.09.46-1.41s.73-.48,1.26-.48.95.16,1.26.48.46.8.46,1.43v.55h-2.71c0,.5.1.86.29,1.08.18.22.43.33.75.33.28,0,.49-.07.62-.2.13-.13.21-.28.24-.45h.74c-.09.43-.27.75-.54.96-.27.21-.62.31-1.06.31h0ZM116.59,38.14c-.31,0-.56.1-.73.29-.17.19-.26.51-.27.95h2.02c0-.45-.1-.76-.27-.95-.17-.19-.42-.29-.75-.29Z"/>
    </g>
  </g>
  <g>
    <circle class="st0" cx="68.67" cy="17.65" r=".98"/>
    <polygon class="st0" points="68.67 27.26 67.25 23.44 68.67 19.63 70.08 23.44 68.67 27.26"/>
    <path class="st0" d="M71.84,12.33c-2.06,0-3.73-1.67-3.73-3.73,0-.96.36-1.84.96-2.5-2.35.17-4.2,2.13-4.2,4.51s2.03,4.53,4.53,4.53c2.1,0,3.86-1.42,4.37-3.36-.56.34-1.23.54-1.94.54h.01Z"/>
  </g>
</svg>